<mxfile host="app.diagrams.net" agent="Mozilla/5.0 (Windows NT 10.0; Win64; x64) AppleWebKit/537.36 (KHTML, like Gecko) Chrome/132.0.0.0 Safari/537.36" version="26.0.12">
  <diagram id="C5RBs43oDa-KdzZeNtuy" name="Page-1">
    <mxGraphModel dx="752" dy="441" grid="1" gridSize="10" guides="1" tooltips="1" connect="1" arrows="1" fold="1" page="1" pageScale="1" pageWidth="3300" pageHeight="4681" math="0" shadow="0">
      <root>
        <mxCell id="WIyWlLk6GJQsqaUBKTNV-0" />
        <mxCell id="WIyWlLk6GJQsqaUBKTNV-1" parent="WIyWlLk6GJQsqaUBKTNV-0" />
        <mxCell id="GsKHZ4NNZR2ULBoKyiOF-1" value="" style="edgeStyle=orthogonalEdgeStyle;rounded=0;orthogonalLoop=1;jettySize=auto;html=1;" edge="1" parent="WIyWlLk6GJQsqaUBKTNV-1" source="WIyWlLk6GJQsqaUBKTNV-3" target="GsKHZ4NNZR2ULBoKyiOF-0">
          <mxGeometry relative="1" as="geometry" />
        </mxCell>
        <mxCell id="GsKHZ4NNZR2ULBoKyiOF-2" value="Ikke i etasje" style="edgeLabel;html=1;align=center;verticalAlign=middle;resizable=0;points=[];" vertex="1" connectable="0" parent="GsKHZ4NNZR2ULBoKyiOF-1">
          <mxGeometry x="-0.0381" y="-1" relative="1" as="geometry">
            <mxPoint y="-11" as="offset" />
          </mxGeometry>
        </mxCell>
        <mxCell id="GsKHZ4NNZR2ULBoKyiOF-4" value="" style="edgeStyle=orthogonalEdgeStyle;rounded=0;orthogonalLoop=1;jettySize=auto;html=1;" edge="1" parent="WIyWlLk6GJQsqaUBKTNV-1" source="WIyWlLk6GJQsqaUBKTNV-3" target="GsKHZ4NNZR2ULBoKyiOF-3">
          <mxGeometry relative="1" as="geometry" />
        </mxCell>
        <mxCell id="WIyWlLk6GJQsqaUBKTNV-3" value="Start" style="rounded=1;whiteSpace=wrap;html=1;fontSize=12;glass=0;strokeWidth=1;shadow=0;fillColor=#dae8fc;strokeColor=#6c8ebf;" parent="WIyWlLk6GJQsqaUBKTNV-1" vertex="1">
          <mxGeometry x="710" y="170" width="120" height="40" as="geometry" />
        </mxCell>
        <mxCell id="GsKHZ4NNZR2ULBoKyiOF-6" style="edgeStyle=orthogonalEdgeStyle;rounded=0;orthogonalLoop=1;jettySize=auto;html=1;entryX=1;entryY=0.5;entryDx=0;entryDy=0;exitX=0.25;exitY=1;exitDx=0;exitDy=0;" edge="1" parent="WIyWlLk6GJQsqaUBKTNV-1" source="GsKHZ4NNZR2ULBoKyiOF-0" target="GsKHZ4NNZR2ULBoKyiOF-3">
          <mxGeometry relative="1" as="geometry">
            <Array as="points">
              <mxPoint x="970" y="210" />
              <mxPoint x="970" y="270" />
            </Array>
          </mxGeometry>
        </mxCell>
        <mxCell id="GsKHZ4NNZR2ULBoKyiOF-7" value="Etasje er nådd" style="edgeLabel;html=1;align=center;verticalAlign=middle;resizable=0;points=[];" vertex="1" connectable="0" parent="GsKHZ4NNZR2ULBoKyiOF-6">
          <mxGeometry x="0.4003" y="-2" relative="1" as="geometry">
            <mxPoint x="16" y="-8" as="offset" />
          </mxGeometry>
        </mxCell>
        <mxCell id="GsKHZ4NNZR2ULBoKyiOF-0" value="Gå opp" style="rounded=0;whiteSpace=wrap;html=1;fillColor=#dae8fc;strokeColor=#6c8ebf;" vertex="1" parent="WIyWlLk6GJQsqaUBKTNV-1">
          <mxGeometry x="910" y="170" width="120" height="40" as="geometry" />
        </mxCell>
        <mxCell id="GsKHZ4NNZR2ULBoKyiOF-13" style="edgeStyle=orthogonalEdgeStyle;rounded=0;orthogonalLoop=1;jettySize=auto;html=1;exitX=0.25;exitY=1;exitDx=0;exitDy=0;entryX=0.5;entryY=0;entryDx=0;entryDy=0;" edge="1" parent="WIyWlLk6GJQsqaUBKTNV-1" source="GsKHZ4NNZR2ULBoKyiOF-3" target="GsKHZ4NNZR2ULBoKyiOF-9">
          <mxGeometry relative="1" as="geometry" />
        </mxCell>
        <mxCell id="GsKHZ4NNZR2ULBoKyiOF-3" value="Vent på bestilling&lt;div&gt;Dann struct&lt;/div&gt;" style="rounded=1;whiteSpace=wrap;html=1;fillColor=#dae8fc;strokeColor=#6c8ebf;" vertex="1" parent="WIyWlLk6GJQsqaUBKTNV-1">
          <mxGeometry x="710" y="240" width="120" height="60" as="geometry" />
        </mxCell>
        <mxCell id="GsKHZ4NNZR2ULBoKyiOF-16" value="" style="edgeStyle=orthogonalEdgeStyle;rounded=0;orthogonalLoop=1;jettySize=auto;html=1;" edge="1" parent="WIyWlLk6GJQsqaUBKTNV-1" source="GsKHZ4NNZR2ULBoKyiOF-8" target="GsKHZ4NNZR2ULBoKyiOF-15">
          <mxGeometry relative="1" as="geometry" />
        </mxCell>
        <mxCell id="GsKHZ4NNZR2ULBoKyiOF-8" value="Bevege seg ned" style="rounded=1;whiteSpace=wrap;html=1;fillColor=#d5e8d4;strokeColor=#82b366;" vertex="1" parent="WIyWlLk6GJQsqaUBKTNV-1">
          <mxGeometry x="890" y="340" width="120" height="40" as="geometry" />
        </mxCell>
        <mxCell id="GsKHZ4NNZR2ULBoKyiOF-18" value="" style="edgeStyle=orthogonalEdgeStyle;rounded=0;orthogonalLoop=1;jettySize=auto;html=1;" edge="1" parent="WIyWlLk6GJQsqaUBKTNV-1" source="GsKHZ4NNZR2ULBoKyiOF-9" target="GsKHZ4NNZR2ULBoKyiOF-17">
          <mxGeometry relative="1" as="geometry" />
        </mxCell>
        <mxCell id="GsKHZ4NNZR2ULBoKyiOF-9" value="Bevege seg opp" style="rounded=1;whiteSpace=wrap;html=1;fillColor=#d5e8d4;strokeColor=#82b366;" vertex="1" parent="WIyWlLk6GJQsqaUBKTNV-1">
          <mxGeometry x="440" y="350" width="120" height="40" as="geometry" />
        </mxCell>
        <mxCell id="GsKHZ4NNZR2ULBoKyiOF-10" style="edgeStyle=orthogonalEdgeStyle;rounded=0;orthogonalLoop=1;jettySize=auto;html=1;exitX=0.75;exitY=1;exitDx=0;exitDy=0;entryX=0.435;entryY=0.058;entryDx=0;entryDy=0;entryPerimeter=0;" edge="1" parent="WIyWlLk6GJQsqaUBKTNV-1" source="GsKHZ4NNZR2ULBoKyiOF-3" target="GsKHZ4NNZR2ULBoKyiOF-8">
          <mxGeometry relative="1" as="geometry" />
        </mxCell>
        <mxCell id="GsKHZ4NNZR2ULBoKyiOF-11" value="Bestilling i nedre etasje" style="edgeLabel;html=1;align=center;verticalAlign=middle;resizable=0;points=[];" vertex="1" connectable="0" parent="GsKHZ4NNZR2ULBoKyiOF-10">
          <mxGeometry x="-0.0505" y="3" relative="1" as="geometry">
            <mxPoint x="12" y="-7" as="offset" />
          </mxGeometry>
        </mxCell>
        <mxCell id="GsKHZ4NNZR2ULBoKyiOF-14" value="Bestilling i øvre etasje" style="text;html=1;align=center;verticalAlign=middle;resizable=0;points=[];autosize=1;strokeColor=none;fillColor=none;" vertex="1" parent="WIyWlLk6GJQsqaUBKTNV-1">
          <mxGeometry x="545" y="300" width="140" height="30" as="geometry" />
        </mxCell>
        <mxCell id="GsKHZ4NNZR2ULBoKyiOF-21" style="edgeStyle=orthogonalEdgeStyle;rounded=0;orthogonalLoop=1;jettySize=auto;html=1;entryX=1;entryY=0.5;entryDx=0;entryDy=0;" edge="1" parent="WIyWlLk6GJQsqaUBKTNV-1" source="GsKHZ4NNZR2ULBoKyiOF-15" target="GsKHZ4NNZR2ULBoKyiOF-9">
          <mxGeometry relative="1" as="geometry">
            <mxPoint x="660" y="380" as="targetPoint" />
            <Array as="points">
              <mxPoint x="710" y="460" />
              <mxPoint x="710" y="370" />
            </Array>
          </mxGeometry>
        </mxCell>
        <mxCell id="GsKHZ4NNZR2ULBoKyiOF-27" style="edgeStyle=orthogonalEdgeStyle;rounded=0;orthogonalLoop=1;jettySize=auto;html=1;entryX=1;entryY=0.5;entryDx=0;entryDy=0;exitX=1;exitY=0.75;exitDx=0;exitDy=0;" edge="1" parent="WIyWlLk6GJQsqaUBKTNV-1" source="GsKHZ4NNZR2ULBoKyiOF-15" target="GsKHZ4NNZR2ULBoKyiOF-8">
          <mxGeometry relative="1" as="geometry">
            <mxPoint x="1150" y="360" as="targetPoint" />
            <Array as="points">
              <mxPoint x="1020" y="450" />
              <mxPoint x="1120" y="450" />
              <mxPoint x="1120" y="360" />
            </Array>
          </mxGeometry>
        </mxCell>
        <mxCell id="GsKHZ4NNZR2ULBoKyiOF-38" style="edgeStyle=orthogonalEdgeStyle;rounded=0;orthogonalLoop=1;jettySize=auto;html=1;entryX=1;entryY=0.25;entryDx=0;entryDy=0;exitX=0.5;exitY=1;exitDx=0;exitDy=0;" edge="1" parent="WIyWlLk6GJQsqaUBKTNV-1" source="GsKHZ4NNZR2ULBoKyiOF-15" target="GsKHZ4NNZR2ULBoKyiOF-35">
          <mxGeometry relative="1" as="geometry">
            <Array as="points">
              <mxPoint x="950" y="570" />
              <mxPoint x="780" y="570" />
            </Array>
          </mxGeometry>
        </mxCell>
        <mxCell id="GsKHZ4NNZR2ULBoKyiOF-15" value="Av/påstigningsprosedye¨&lt;div&gt;Nedtilstand&lt;/div&gt;" style="rounded=1;whiteSpace=wrap;html=1;fillColor=#fff2cc;strokeColor=#d6b656;" vertex="1" parent="WIyWlLk6GJQsqaUBKTNV-1">
          <mxGeometry x="880" y="443" width="140" height="40" as="geometry" />
        </mxCell>
        <mxCell id="GsKHZ4NNZR2ULBoKyiOF-23" style="edgeStyle=orthogonalEdgeStyle;rounded=0;orthogonalLoop=1;jettySize=auto;html=1;entryX=0;entryY=0.5;entryDx=0;entryDy=0;" edge="1" parent="WIyWlLk6GJQsqaUBKTNV-1" source="GsKHZ4NNZR2ULBoKyiOF-17" target="GsKHZ4NNZR2ULBoKyiOF-8">
          <mxGeometry relative="1" as="geometry">
            <Array as="points">
              <mxPoint x="700" y="463" />
              <mxPoint x="700" y="360" />
            </Array>
          </mxGeometry>
        </mxCell>
        <mxCell id="GsKHZ4NNZR2ULBoKyiOF-31" style="edgeStyle=orthogonalEdgeStyle;rounded=0;orthogonalLoop=1;jettySize=auto;html=1;entryX=0;entryY=0.25;entryDx=0;entryDy=0;exitX=0;exitY=0.75;exitDx=0;exitDy=0;" edge="1" parent="WIyWlLk6GJQsqaUBKTNV-1" source="GsKHZ4NNZR2ULBoKyiOF-17" target="GsKHZ4NNZR2ULBoKyiOF-9">
          <mxGeometry relative="1" as="geometry">
            <Array as="points">
              <mxPoint x="430" y="450" />
              <mxPoint x="330" y="450" />
              <mxPoint x="330" y="360" />
            </Array>
          </mxGeometry>
        </mxCell>
        <mxCell id="GsKHZ4NNZR2ULBoKyiOF-39" style="edgeStyle=orthogonalEdgeStyle;rounded=0;orthogonalLoop=1;jettySize=auto;html=1;entryX=0;entryY=0.25;entryDx=0;entryDy=0;exitX=0.5;exitY=1;exitDx=0;exitDy=0;" edge="1" parent="WIyWlLk6GJQsqaUBKTNV-1" source="GsKHZ4NNZR2ULBoKyiOF-17" target="GsKHZ4NNZR2ULBoKyiOF-35">
          <mxGeometry relative="1" as="geometry">
            <Array as="points">
              <mxPoint x="500" y="570" />
              <mxPoint x="660" y="570" />
            </Array>
          </mxGeometry>
        </mxCell>
        <mxCell id="GsKHZ4NNZR2ULBoKyiOF-17" value="Av/påstigningsprosedye¨&lt;div&gt;Opptilstand&lt;/div&gt;" style="rounded=1;whiteSpace=wrap;html=1;fillColor=#fff2cc;strokeColor=#d6b656;" vertex="1" parent="WIyWlLk6GJQsqaUBKTNV-1">
          <mxGeometry x="430" y="443" width="140" height="40" as="geometry" />
        </mxCell>
        <mxCell id="GsKHZ4NNZR2ULBoKyiOF-19" value="Bestillingsetasje er nådd&lt;div&gt;Bestilling opp/avstigning&lt;/div&gt;" style="text;html=1;align=center;verticalAlign=middle;resizable=0;points=[];autosize=1;strokeColor=none;fillColor=none;" vertex="1" parent="WIyWlLk6GJQsqaUBKTNV-1">
          <mxGeometry x="950" y="390" width="150" height="40" as="geometry" />
        </mxCell>
        <mxCell id="GsKHZ4NNZR2ULBoKyiOF-20" value="Bestillingsetasje er nådd&lt;div&gt;Bestilling opp/avstigning&lt;/div&gt;" style="text;html=1;align=center;verticalAlign=middle;resizable=0;points=[];autosize=1;strokeColor=none;fillColor=none;" vertex="1" parent="WIyWlLk6GJQsqaUBKTNV-1">
          <mxGeometry x="350" y="395" width="150" height="40" as="geometry" />
        </mxCell>
        <mxCell id="GsKHZ4NNZR2ULBoKyiOF-22" value="Ingen bestillinger ned" style="text;html=1;align=center;verticalAlign=middle;resizable=0;points=[];autosize=1;strokeColor=none;fillColor=none;" vertex="1" parent="WIyWlLk6GJQsqaUBKTNV-1">
          <mxGeometry x="740" y="438" width="140" height="30" as="geometry" />
        </mxCell>
        <mxCell id="GsKHZ4NNZR2ULBoKyiOF-24" value="Ingen bestillinger opp" style="text;html=1;align=center;verticalAlign=middle;resizable=0;points=[];autosize=1;strokeColor=none;fillColor=none;" vertex="1" parent="WIyWlLk6GJQsqaUBKTNV-1">
          <mxGeometry x="560" y="438" width="140" height="30" as="geometry" />
        </mxCell>
        <mxCell id="GsKHZ4NNZR2ULBoKyiOF-30" value="Finnes nedre bestillinger" style="text;html=1;align=center;verticalAlign=middle;resizable=0;points=[];autosize=1;strokeColor=none;fillColor=none;" vertex="1" parent="WIyWlLk6GJQsqaUBKTNV-1">
          <mxGeometry x="1120" y="413" width="150" height="30" as="geometry" />
        </mxCell>
        <mxCell id="GsKHZ4NNZR2ULBoKyiOF-33" value="Finnes øvre bestillinger" style="text;html=1;align=center;verticalAlign=middle;resizable=0;points=[];autosize=1;strokeColor=none;fillColor=none;" vertex="1" parent="WIyWlLk6GJQsqaUBKTNV-1">
          <mxGeometry x="190" y="390" width="150" height="30" as="geometry" />
        </mxCell>
        <mxCell id="GsKHZ4NNZR2ULBoKyiOF-43" style="edgeStyle=orthogonalEdgeStyle;rounded=0;orthogonalLoop=1;jettySize=auto;html=1;exitX=1;exitY=0.75;exitDx=0;exitDy=0;entryX=1;entryY=0.25;entryDx=0;entryDy=0;" edge="1" parent="WIyWlLk6GJQsqaUBKTNV-1" source="GsKHZ4NNZR2ULBoKyiOF-35" target="GsKHZ4NNZR2ULBoKyiOF-8">
          <mxGeometry relative="1" as="geometry">
            <Array as="points">
              <mxPoint x="1280" y="595" />
              <mxPoint x="1280" y="350" />
            </Array>
          </mxGeometry>
        </mxCell>
        <mxCell id="GsKHZ4NNZR2ULBoKyiOF-44" style="edgeStyle=orthogonalEdgeStyle;rounded=0;orthogonalLoop=1;jettySize=auto;html=1;exitX=0;exitY=0.75;exitDx=0;exitDy=0;entryX=0;entryY=0.5;entryDx=0;entryDy=0;" edge="1" parent="WIyWlLk6GJQsqaUBKTNV-1" source="GsKHZ4NNZR2ULBoKyiOF-35" target="GsKHZ4NNZR2ULBoKyiOF-9">
          <mxGeometry relative="1" as="geometry">
            <Array as="points">
              <mxPoint x="180" y="595" />
              <mxPoint x="180" y="370" />
            </Array>
          </mxGeometry>
        </mxCell>
        <mxCell id="GsKHZ4NNZR2ULBoKyiOF-35" value="Vent på bestilling" style="rounded=1;whiteSpace=wrap;html=1;fillColor=#fff2cc;strokeColor=#d6b656;" vertex="1" parent="WIyWlLk6GJQsqaUBKTNV-1">
          <mxGeometry x="660" y="550" width="120" height="60" as="geometry" />
        </mxCell>
        <mxCell id="GsKHZ4NNZR2ULBoKyiOF-40" value="Ingen bestillinger" style="text;html=1;align=center;verticalAlign=middle;resizable=0;points=[];autosize=1;strokeColor=none;fillColor=none;" vertex="1" parent="WIyWlLk6GJQsqaUBKTNV-1">
          <mxGeometry x="815" y="538" width="110" height="30" as="geometry" />
        </mxCell>
        <mxCell id="GsKHZ4NNZR2ULBoKyiOF-41" value="Ingen bestillinger" style="text;html=1;align=center;verticalAlign=middle;resizable=0;points=[];autosize=1;strokeColor=none;fillColor=none;" vertex="1" parent="WIyWlLk6GJQsqaUBKTNV-1">
          <mxGeometry x="510" y="538" width="110" height="30" as="geometry" />
        </mxCell>
        <mxCell id="GsKHZ4NNZR2ULBoKyiOF-45" value="Bestilling i øvre etasje" style="text;html=1;align=center;verticalAlign=middle;resizable=0;points=[];autosize=1;strokeColor=none;fillColor=none;" vertex="1" parent="WIyWlLk6GJQsqaUBKTNV-1">
          <mxGeometry x="230" y="600" width="140" height="30" as="geometry" />
        </mxCell>
        <mxCell id="GsKHZ4NNZR2ULBoKyiOF-46" value="Finnes nedre bestillinger" style="text;html=1;align=center;verticalAlign=middle;resizable=0;points=[];autosize=1;strokeColor=none;fillColor=none;" vertex="1" parent="WIyWlLk6GJQsqaUBKTNV-1">
          <mxGeometry x="1000" y="600" width="150" height="30" as="geometry" />
        </mxCell>
        <mxCell id="GsKHZ4NNZR2ULBoKyiOF-48" value="&lt;h1&gt;Bevegelseslogikk&lt;/h1&gt;" style="text;html=1;align=center;verticalAlign=middle;resizable=0;points=[];autosize=1;strokeColor=none;fillColor=none;" vertex="1" parent="WIyWlLk6GJQsqaUBKTNV-1">
          <mxGeometry x="680" y="68" width="220" height="70" as="geometry" />
        </mxCell>
        <mxCell id="GsKHZ4NNZR2ULBoKyiOF-49" value="&lt;h1&gt;Av/påstignings- og dørlogikk&lt;/h1&gt;" style="text;html=1;align=center;verticalAlign=middle;resizable=0;points=[];autosize=1;strokeColor=none;fillColor=none;" vertex="1" parent="WIyWlLk6GJQsqaUBKTNV-1">
          <mxGeometry x="580" y="780" width="350" height="70" as="geometry" />
        </mxCell>
        <mxCell id="GsKHZ4NNZR2ULBoKyiOF-52" style="edgeStyle=orthogonalEdgeStyle;rounded=0;orthogonalLoop=1;jettySize=auto;html=1;entryX=0.5;entryY=0;entryDx=0;entryDy=0;" edge="1" parent="WIyWlLk6GJQsqaUBKTNV-1" source="GsKHZ4NNZR2ULBoKyiOF-50" target="GsKHZ4NNZR2ULBoKyiOF-51">
          <mxGeometry relative="1" as="geometry" />
        </mxCell>
        <mxCell id="GsKHZ4NNZR2ULBoKyiOF-59" style="edgeStyle=orthogonalEdgeStyle;rounded=0;orthogonalLoop=1;jettySize=auto;html=1;entryX=0.5;entryY=0;entryDx=0;entryDy=0;" edge="1" parent="WIyWlLk6GJQsqaUBKTNV-1" source="GsKHZ4NNZR2ULBoKyiOF-50" target="GsKHZ4NNZR2ULBoKyiOF-55">
          <mxGeometry relative="1" as="geometry" />
        </mxCell>
        <mxCell id="GsKHZ4NNZR2ULBoKyiOF-50" value="Dør lukket" style="rounded=1;whiteSpace=wrap;html=1;fillColor=#f8cecc;strokeColor=#b85450;" vertex="1" parent="WIyWlLk6GJQsqaUBKTNV-1">
          <mxGeometry x="690" y="870" width="120" height="60" as="geometry" />
        </mxCell>
        <mxCell id="GsKHZ4NNZR2ULBoKyiOF-56" style="edgeStyle=orthogonalEdgeStyle;rounded=0;orthogonalLoop=1;jettySize=auto;html=1;entryX=0.5;entryY=1;entryDx=0;entryDy=0;" edge="1" parent="WIyWlLk6GJQsqaUBKTNV-1" source="GsKHZ4NNZR2ULBoKyiOF-51" target="GsKHZ4NNZR2ULBoKyiOF-55">
          <mxGeometry relative="1" as="geometry" />
        </mxCell>
        <mxCell id="GsKHZ4NNZR2ULBoKyiOF-70" style="edgeStyle=orthogonalEdgeStyle;rounded=0;orthogonalLoop=1;jettySize=auto;html=1;entryX=1;entryY=0.75;entryDx=0;entryDy=0;" edge="1" parent="WIyWlLk6GJQsqaUBKTNV-1" source="GsKHZ4NNZR2ULBoKyiOF-51" target="GsKHZ4NNZR2ULBoKyiOF-68">
          <mxGeometry relative="1" as="geometry">
            <Array as="points">
              <mxPoint x="600" y="1085" />
              <mxPoint x="600" y="1085" />
            </Array>
          </mxGeometry>
        </mxCell>
        <mxCell id="GsKHZ4NNZR2ULBoKyiOF-79" style="edgeStyle=orthogonalEdgeStyle;rounded=0;orthogonalLoop=1;jettySize=auto;html=1;entryX=0.5;entryY=0;entryDx=0;entryDy=0;" edge="1" parent="WIyWlLk6GJQsqaUBKTNV-1" source="GsKHZ4NNZR2ULBoKyiOF-51" target="GsKHZ4NNZR2ULBoKyiOF-78">
          <mxGeometry relative="1" as="geometry" />
        </mxCell>
        <mxCell id="GsKHZ4NNZR2ULBoKyiOF-51" value="Dør åpen i 3 sekunder" style="rounded=1;whiteSpace=wrap;html=1;fillColor=#d5e8d4;strokeColor=#82b366;" vertex="1" parent="WIyWlLk6GJQsqaUBKTNV-1">
          <mxGeometry x="690" y="1050" width="120" height="60" as="geometry" />
        </mxCell>
        <mxCell id="GsKHZ4NNZR2ULBoKyiOF-53" value="Heisfart = 0&lt;div&gt;Heis i definert etasje&lt;/div&gt;&lt;div&gt;Bestilling i etasjen&lt;/div&gt;" style="text;html=1;align=center;verticalAlign=middle;resizable=0;points=[];autosize=1;strokeColor=none;fillColor=none;" vertex="1" parent="WIyWlLk6GJQsqaUBKTNV-1">
          <mxGeometry x="750" y="960" width="130" height="60" as="geometry" />
        </mxCell>
        <mxCell id="GsKHZ4NNZR2ULBoKyiOF-61" value="" style="edgeStyle=orthogonalEdgeStyle;rounded=0;orthogonalLoop=1;jettySize=auto;html=1;entryX=1;entryY=0.25;entryDx=0;entryDy=0;exitX=0.75;exitY=0;exitDx=0;exitDy=0;" edge="1" parent="WIyWlLk6GJQsqaUBKTNV-1" source="GsKHZ4NNZR2ULBoKyiOF-55" target="GsKHZ4NNZR2ULBoKyiOF-50">
          <mxGeometry relative="1" as="geometry" />
        </mxCell>
        <mxCell id="GsKHZ4NNZR2ULBoKyiOF-55" value="Sjekk om dør er lukket" style="rounded=1;whiteSpace=wrap;html=1;fillColor=#dae8fc;strokeColor=#6c8ebf;" vertex="1" parent="WIyWlLk6GJQsqaUBKTNV-1">
          <mxGeometry x="940" y="970" width="120" height="60" as="geometry" />
        </mxCell>
        <mxCell id="GsKHZ4NNZR2ULBoKyiOF-58" value="Heis hastighet går fra null til x" style="text;html=1;align=center;verticalAlign=middle;resizable=0;points=[];autosize=1;strokeColor=none;fillColor=none;" vertex="1" parent="WIyWlLk6GJQsqaUBKTNV-1">
          <mxGeometry x="815" y="1080" width="180" height="30" as="geometry" />
        </mxCell>
        <mxCell id="GsKHZ4NNZR2ULBoKyiOF-60" value="Heis hastighet går fra null til x" style="text;html=1;align=center;verticalAlign=middle;resizable=0;points=[];autosize=1;strokeColor=none;fillColor=none;" vertex="1" parent="WIyWlLk6GJQsqaUBKTNV-1">
          <mxGeometry x="810" y="900" width="180" height="30" as="geometry" />
        </mxCell>
        <mxCell id="GsKHZ4NNZR2ULBoKyiOF-62" value="Lukk dør/fortsett som før" style="text;html=1;align=center;verticalAlign=middle;resizable=0;points=[];autosize=1;strokeColor=none;fillColor=none;" vertex="1" parent="WIyWlLk6GJQsqaUBKTNV-1">
          <mxGeometry x="875" y="860" width="150" height="30" as="geometry" />
        </mxCell>
        <mxCell id="GsKHZ4NNZR2ULBoKyiOF-75" style="edgeStyle=orthogonalEdgeStyle;rounded=0;orthogonalLoop=1;jettySize=auto;html=1;entryX=0;entryY=0.25;entryDx=0;entryDy=0;" edge="1" parent="WIyWlLk6GJQsqaUBKTNV-1" source="GsKHZ4NNZR2ULBoKyiOF-68" target="GsKHZ4NNZR2ULBoKyiOF-51">
          <mxGeometry relative="1" as="geometry">
            <Array as="points">
              <mxPoint x="570" y="1065" />
              <mxPoint x="570" y="1065" />
            </Array>
          </mxGeometry>
        </mxCell>
        <mxCell id="GsKHZ4NNZR2ULBoKyiOF-68" value="Obstruert&lt;div&gt;Dør åpen&lt;/div&gt;" style="rounded=1;whiteSpace=wrap;html=1;fillColor=#fff2cc;strokeColor=#d6b656;" vertex="1" parent="WIyWlLk6GJQsqaUBKTNV-1">
          <mxGeometry x="400" y="1040" width="120" height="60" as="geometry" />
        </mxCell>
        <mxCell id="GsKHZ4NNZR2ULBoKyiOF-73" style="edgeStyle=orthogonalEdgeStyle;rounded=0;orthogonalLoop=1;jettySize=auto;html=1;entryX=0;entryY=0.5;entryDx=0;entryDy=0;exitX=0.5;exitY=1;exitDx=0;exitDy=0;" edge="1" parent="WIyWlLk6GJQsqaUBKTNV-1" source="GsKHZ4NNZR2ULBoKyiOF-68" target="GsKHZ4NNZR2ULBoKyiOF-68">
          <mxGeometry relative="1" as="geometry">
            <Array as="points">
              <mxPoint x="460" y="1120" />
              <mxPoint x="360" y="1120" />
              <mxPoint x="360" y="1070" />
            </Array>
          </mxGeometry>
        </mxCell>
        <mxCell id="GsKHZ4NNZR2ULBoKyiOF-74" value="Obstruksjon på" style="text;html=1;align=center;verticalAlign=middle;resizable=0;points=[];autosize=1;strokeColor=none;fillColor=none;" vertex="1" parent="WIyWlLk6GJQsqaUBKTNV-1">
          <mxGeometry x="360" y="1120" width="100" height="30" as="geometry" />
        </mxCell>
        <mxCell id="GsKHZ4NNZR2ULBoKyiOF-76" value="Obstruksjon på" style="text;html=1;align=center;verticalAlign=middle;resizable=0;points=[];autosize=1;strokeColor=none;fillColor=none;" vertex="1" parent="WIyWlLk6GJQsqaUBKTNV-1">
          <mxGeometry x="545" y="1090" width="100" height="30" as="geometry" />
        </mxCell>
        <mxCell id="GsKHZ4NNZR2ULBoKyiOF-80" style="edgeStyle=orthogonalEdgeStyle;rounded=0;orthogonalLoop=1;jettySize=auto;html=1;entryX=0;entryY=0.25;entryDx=0;entryDy=0;" edge="1" parent="WIyWlLk6GJQsqaUBKTNV-1" source="GsKHZ4NNZR2ULBoKyiOF-78" target="GsKHZ4NNZR2ULBoKyiOF-50">
          <mxGeometry relative="1" as="geometry">
            <Array as="points">
              <mxPoint x="300" y="1250" />
              <mxPoint x="300" y="885" />
            </Array>
          </mxGeometry>
        </mxCell>
        <mxCell id="GsKHZ4NNZR2ULBoKyiOF-78" value="Signaliser at stopp er ferdig utført" style="rounded=1;whiteSpace=wrap;html=1;fillColor=#d5e8d4;strokeColor=#82b366;" vertex="1" parent="WIyWlLk6GJQsqaUBKTNV-1">
          <mxGeometry x="690" y="1170" width="120" height="60" as="geometry" />
        </mxCell>
        <mxCell id="GsKHZ4NNZR2ULBoKyiOF-81" value="Obstruksjon av" style="text;html=1;align=center;verticalAlign=middle;resizable=0;points=[];autosize=1;strokeColor=none;fillColor=none;" vertex="1" parent="WIyWlLk6GJQsqaUBKTNV-1">
          <mxGeometry x="545" y="1030" width="100" height="30" as="geometry" />
        </mxCell>
        <mxCell id="GsKHZ4NNZR2ULBoKyiOF-83" value="Tid fullført uavbrutt" style="text;html=1;align=center;verticalAlign=middle;resizable=0;points=[];autosize=1;strokeColor=none;fillColor=none;" vertex="1" parent="WIyWlLk6GJQsqaUBKTNV-1">
          <mxGeometry x="750" y="1128" width="120" height="30" as="geometry" />
        </mxCell>
        <mxCell id="GsKHZ4NNZR2ULBoKyiOF-88" style="edgeStyle=orthogonalEdgeStyle;rounded=0;orthogonalLoop=1;jettySize=auto;html=1;exitX=0.75;exitY=1;exitDx=0;exitDy=0;entryX=1;entryY=0.5;entryDx=0;entryDy=0;" edge="1" parent="WIyWlLk6GJQsqaUBKTNV-1" source="GsKHZ4NNZR2ULBoKyiOF-15" target="GsKHZ4NNZR2ULBoKyiOF-15">
          <mxGeometry relative="1" as="geometry" />
        </mxCell>
        <mxCell id="GsKHZ4NNZR2ULBoKyiOF-89" value="Stopp ikke fullført" style="text;html=1;align=center;verticalAlign=middle;resizable=0;points=[];autosize=1;strokeColor=none;fillColor=none;" vertex="1" parent="WIyWlLk6GJQsqaUBKTNV-1">
          <mxGeometry x="960" y="500" width="120" height="30" as="geometry" />
        </mxCell>
        <mxCell id="GsKHZ4NNZR2ULBoKyiOF-90" style="edgeStyle=orthogonalEdgeStyle;rounded=0;orthogonalLoop=1;jettySize=auto;html=1;exitX=0.25;exitY=1;exitDx=0;exitDy=0;entryX=0;entryY=0.5;entryDx=0;entryDy=0;" edge="1" parent="WIyWlLk6GJQsqaUBKTNV-1" source="GsKHZ4NNZR2ULBoKyiOF-17" target="GsKHZ4NNZR2ULBoKyiOF-17">
          <mxGeometry relative="1" as="geometry">
            <Array as="points">
              <mxPoint x="465" y="503" />
              <mxPoint x="390" y="503" />
              <mxPoint x="390" y="463" />
            </Array>
          </mxGeometry>
        </mxCell>
        <mxCell id="GsKHZ4NNZR2ULBoKyiOF-91" value="Stopp ikke fullført" style="text;html=1;align=center;verticalAlign=middle;resizable=0;points=[];autosize=1;strokeColor=none;fillColor=none;" vertex="1" parent="WIyWlLk6GJQsqaUBKTNV-1">
          <mxGeometry x="350" y="500" width="120" height="30" as="geometry" />
        </mxCell>
      </root>
    </mxGraphModel>
  </diagram>
</mxfile>
